<svg version="1" xmlns="http://www.w3.org/2000/svg" width="814.667" height="814.667" viewBox="0 0 611.000000 611.000000"><path d="M252.7 52.8c-28.4 28.4-51.7 52.1-51.7 52.6s23.4 24.3 52 52.9l52 51.9 52-52c28.6-28.6 52-52.3 52-52.7C409 104.8 305.5 1 304.9 1c-.2 0-23.7 23.3-52.2 51.8z"/><path d="M126 179.5L99.5 206l102.8 102.8L305 411.5l102.7-102.7 102.6-102.6-26.7-26.7c-14.6-14.8-26.8-26.6-27.1-26.4-.2.2-34.4 34.4-76 75.9L305 304.4l-75.8-75.7C187.6 187.1 153.3 153 153 153c-.3 0-12.4 11.9-27 26.5z"/><path d="M26.6 278.9l-25.9 26L152.8 457 305 609.2l152.1-152.1L609.2 305l-26-26c-18.7-18.7-26.3-25.7-26.9-24.8-.5.7-57.2 57.5-126.1 126.3L305 505.5 178.7 379.2 52.5 253l-25.9 25.9z"/></svg>