<svg xmlns="http://www.w3.org/2000/svg" width="24" height="24"><path d="M12 0C5.373 0 0 5.373 0 12s5.373 12 12 12 12-5.373 12-12S18.627 0 12 0zm6.344 16.163h-1.867c-1.055 0-1.232-.6-2.102-1.47-.785-.785-1.22-.183-1.202.935.006.297-.14.534-.495.534-1.105 0-2.694.156-4.304-1.58C6.727 12.804 5 9.235 5 8.884c0-.208.172-.3.459-.3h1.898c.503 0 .545.249.686.568.584 1.33 1.98 4.002 2.354 2.51.214-.856.3-2.84-.615-3-.52-.096.396-.652 1.722-.652.33 0 .688.035 1.054.12.673.156.676.458.666.898-.034 1.666-.235 2.786.204 3.069.419.27 1.52-1.502 2.104-2.87.159-.378.19-.632.643-.632h2.322c1.216 0-.16 1.748-1.2 3.112-.847 1.099-.802 1.12.183 2.034.7.65 1.53 1.54 1.53 2.043 0 .238-.186.39-.656.39z"/></svg>