<svg xmlns="http://www.w3.org/2000/svg" width="512" height="512" viewBox="0 0 90 90"><path d="M90 44c0 24-20 44-44 44 -8 0-15-2-21-5L0 90l8-24c-4-7-6-14-6-23C2 20 21 0 46 0 70 0 90 20 90 44zM46 7c-20 0-37 17-37 37 0 8 3 16 7 22L11 79l14-5c6 4 13 6 20 6 20 0 37-17 37-37S66 7 46 7zM68 54c0 0-1-1-2-1 -1-1-6-3-7-3 -1 0-2-1-2 1 -1 1-3 3-3 4 -1 1-1 1-2 0 -1-1-5-2-9-5 -3-3-5-6-6-7 -1-1 0-2 0-2 0 0 1-1 2-2 1-1 1-1 1-2 0-1 0-1 0-2 0-1-2-6-3-8 -1-2-2-2-2-2 -1 0-1 0-2 0 -1 0-2 0-3 1 -1 1-4 4-4 9 0 5 4 10 4 11 1 1 7 12 19 16C58 66 58 64 60 64c2 0 6-3 7-5C68 57 68 54 68 54z" fill="#25d366"/></svg>